<svg xmlns="http://www.w3.org/2000/svg" viewBox="0 0 216.43 169.79"><defs><style>.cls-1{fill:#262626;}</style></defs><title>Asset 66</title><g id="Layer_2" data-name="Layer 2"><g id="OBJECTS"><path class="cls-1" d="M133.77,26.42a4.33,4.33,0,0,0,5.34-3.76c0-2.79-2.84-4-5.07-2.16C132,22.18,131.84,25.73,133.77,26.42Z"/><path class="cls-1" d="M.45,5.84C-.24,9.1-.13,20.77.75,39c.73,15.47,1.37,32.68,1.41,38.24C2.26,92.84.4,91.67,24.61,91.44c11.38-.11,27-.52,34.64-.92l13.94-.71L72.43,111C72,122.71,70.94,139.84,70,149.1s-1.24,17.21-.8,17.65,2.84,1.29,5.3,1.87,10.09,1.1,17,1.16c9.84.09,12.79-.24,13.9-1.57s1.11-2,0-3.35-.88-5.84,1.09-22.16c1.84-15.07,2.38-24.73,2.09-36.51-.34-12.67-.11-16.14,1.09-16.6,3.42-1.31,39.27-.52,47.38,1l8.43,1.62L170,89.32C188.89,77,217.18,51.71,216.42,47.85a5.59,5.59,0,0,0-2.6-3.09c-4-2.21-15.36-11.83-31.83-26.88C173.14,9.79,164.82,2.41,163.5,1.49,161.42,0,151-.15,84.67.09,42.63.24,6.72.46,4.87.6,1.85.8,1.39,1.34.45,5.84ZM81.37,108.59c-.43,10.28-1.26,22.85-1.84,27.92s-1.07,13.15-1.07,17.94h0c0,7-.33,8.7-1.69,8.7-2,0-2,1.12,0-20.22.93-9.58,1.63-25.24,1.55-34.82-.12-15.77,0-17.45,1.84-17.82S82.11,91.14,81.37,108.59ZM99.2,148.32c-.92,7-1.65,13.43-1.65,14.33,0,1.24-1.61,1.63-6.74,1.63H84.07v-8.15c0-4.48.75-15.72,1.65-25s1.66-22.29,1.68-28.93l0-12.07h14.27l.73,10.39C103.17,111,102.22,125.07,99.2,148.32ZM89.89,6.79,161,6.32,174.5,19.47c7.41,7.23,17.85,16.87,23.22,21.41s9.64,8.62,9.55,9.08c-.39,1.66-18.42,16.93-28.88,24.46l-10.7,7.71-59.51.63c-32.72.34-65.13.94-72,1.31l-12.53.7L23,73.13c-.35-6.4-1.17-23.14-1.83-37.19S19.69,9.68,19.37,8.82C18.86,7.5,29.82,7.19,89.89,6.79ZM13,7l.71,28.36c.41,15.6,1.07,33,1.47,38.76l.74,10.39h-5.6L9.42,61.77C9,49.26,8.24,31.82,7.84,23L7.12,7Z"/><path class="cls-1" d="M35.83,51.9a4.29,4.29,0,0,1,4.44.05q5,2.69,12.56-7.3c5.13-6.79,6.52-7.43,6.52-3s4.86,8.51,8.94,7.35a26.83,26.83,0,0,1,7.25-.58c3.61.18,5.08-.43,8.15-3.41l3.75-3.62v3.51c0,3.88,1.17,5,5.53,5.4a26.78,26.78,0,0,1,5.17,1c1.51.51,3.64-.16,6.39-2,3.61-2.45,4.55-2.65,7.51-1.53,2.75,1,4.13.93,7.31-.59,3.73-1.78,3.94-1.77,4.59.28.85,2.66,4.31,3.85,7,2.42a8.86,8.86,0,0,1,4.95-.52c2.39.45,3.35-.13,5.24-3.2,3.09-5,9.91-11.41,8.74-8.24a46.65,46.65,0,0,0-1.37,8.43c-.53,5.89-.46,6.07,1.33,3.93,5.87-7,8-18.57,3.89-20.78a4.24,4.24,0,0,0-4.4-.05,9.67,9.67,0,0,1-5.46.49c-3-.61-3.51-.26-5.74,4.35-3.76,7.78-10.55,13-7.35,5.69,2.58-5.91,3.15-9,1.81-9.8-1.82-1.12-4.11.27-6.18,3.76s-9,8.35-10.93,7.7c-.67-.22.31-3.06,2.26-6.55,6.22-11.13,7.11-13.24,6.42-15-1.27-3.29-5.08-2-8,2.68-1.54,2.46-2.82,5-2.82,5.62s-1.29,1.15-2.87,1.15c-5.52,0-11.55,4.54-15.59,11.79l-1.88,3.37.53-4c.28-2.22,2.41-8.19,4.73-13.26,3.73-8.15,4-9.41,2.54-10.89-2.39-2.39-4.85-1-7.15,4.1C92.47,23,90.79,25,89.79,25c-5.31,0-14.52,8.88-17,16.35-1.26,3.82-4.57,5.58-6.62,3.51-2.27-2.25-1.25-4.87,3-7.6,6.9-4.46,8.59-10.75,3.6-13.42-3.1-1.66-7.49.87-10.65,6.14-2.59,4.33-2.74,4.41-2.75,1.55,0-3.47-2.08-5.32-3.4-3C52.39,34.72,45.33,45.2,44.7,45.2c-.42,0-.71-1.89-.64-4.21.1-3.45-.27-4.21-2-4.21-1.3,0-3,1.55-4.31,3.93a30.61,30.61,0,0,1-3.88,5.62c-1.55,1.51-1.64,1.22-.94-2.75a44.1,44.1,0,0,1,3.5-9.79c3.33-6.56,3.44-8.81.45-8.81S28.33,33.8,26.73,41.47c-1.07,5.16-1,6.51.54,8.84C29.18,53.23,32.27,53.81,35.83,51.9Zm64.89-8.58c1.5-2.77,6.78-7.63,7.51-6.91.32.33-.48,1.93-1.77,3.57a18.86,18.86,0,0,1-4.6,4.19C99.89,45.22,99.76,45.13,100.72,43.32Zm-18.9-6c.66-1.24,1.46-2.25,1.76-2.25s0,1-.64,2.25-1.45,2.25-1.76,2.25S81.15,38.57,81.82,37.34Z"/><path class="cls-1" d="M159.36,51.56c1.84.36,3.34.9,3.34,1.19,0,2.06-5.63,7.68-9.44,9.41-6.53,3-13.36,2.65-30.26-1.41-18.92-4.55-34.43-5.06-42.37-1.39-5.33,2.48-13.41,8.92-13.41,10.7,0,.57,1.42.3,3.16-.6A87.57,87.57,0,0,1,83,65.38c11.53-3,20.61-2.52,38.12,1.9,22.71,5.73,36.43,3.61,44-6.78,4.65-6.38,12.35-21.86,11.92-24-.49-2.51-7.46-4.64-11.47-3.51C155.76,35.78,151,49.88,159.36,51.56Zm2.95-8.08c.78-2,7.13-5.59,7.13-4,0,.59-1.47,2.12-3.26,3.4C162.28,45.65,161.42,45.78,162.31,43.48Z"/><path class="cls-1" d="M196.4,46.28c0-3.07-4.29-6.25-6.53-4.85s-3.06,5.63-1.28,7.77A4.46,4.46,0,0,0,196.4,46.28Z"/></g></g></svg>