<svg xmlns="http://www.w3.org/2000/svg" viewBox="0 0 233.2 200.71"><defs><style>.cls-1{fill:#262626;}</style></defs><title>Asset 25</title><g id="Layer_2" data-name="Layer 2"><g id="OBJECTS"><path class="cls-1" d="M110.48,37.55c2,2.06,4.16,3.76,4.79,3.76s4.35-3.49,9-8.57c9.38-10.25,11.87-14.54,11.83-20.46-.07-11.9-9.52-14.17-18.25-4.39l-3.1,3.49L114,9.46A27.54,27.54,0,0,0,111.38,5c-3.91-5.39-9.6-6.62-13.33-2.89C94,6.24,93.83,12.32,97.64,19.88A90.64,90.64,0,0,0,110.48,37.55ZM100.86,5.71c1.65-1.65,2.65-1.58,4.93.34,1.78,1.51,6.32,9.55,6.32,11.22,0,1.25,1.51,2.15,3,1.78.74-.2,2.08-1.61,3-3.13,3.25-5.54,7.18-9,10.29-9,1.55,0,3.13,3.23,3.11,6.38,0,2.69-2,6.9-4.84,10.44-1.27,1.57-4.34,5-6.83,7.64l-4.54,4.8-2.58-2.92a103.4,103.4,0,0,1-11.54-17.19C99.21,12,99.09,7.48,100.86,5.71Z"/><path class="cls-1" d="M73.13,99.33c1.88-1.88.33-5.59-2.34-5.59-1.12,0-3.31,2.29-3.31,3.44a4,4,0,0,0,1.25,2.18C70.31,101,71.51,101,73.13,99.33Z"/><path class="cls-1" d="M82.74,101.9c2.12-2.34-.52-5.32-3.38-3.8a2.85,2.85,0,0,0-.52,4.26C79.94,103.46,81.5,103.28,82.74,101.9Z"/><path class="cls-1" d="M.39,171.67c1.07,1.72,11.24,8.66,17.74,12.11,5.38,2.84,16.59,6.94,24.67,9,1.72.45,4.67,1.38,6.56,2.06a22,22,0,0,0,5.15,1.29c4.27.11.46-5.26-7.64-10.76-4.2-2.86-9.37-7.37-9.37-8.16a60.68,60.68,0,0,1,3.92-7.67c2.16-3.82,5.45-10.51,7.32-14.85,3.25-7.58,3.46-7.89,5-7.55A20.39,20.39,0,0,0,65.82,146,53.66,53.66,0,0,0,86,128.72c6.42-9.49,24.27-44.33,26.74-52.15a42.38,42.38,0,0,1,2.62-6.85c2.87-4.19-1.38-10.25-12.27-17.5-4.65-3.1-13.13-7-22.17-10.17-7.75-2.72-12.44-3-16.43-.88s-8.39,9.35-16.86,27.89c-1.72,3.79-6,12.87-9.45,20.17-3.54,7.45-6.76,15.16-7.31,17.5-1.57,6.61-.4,18.89,2.27,23.89A38.88,38.88,0,0,0,37.67,136l3.72,3.89-1.87,3.3c-1,1.82-3.9,8.07-6.38,13.9-4.17,9.82-6.72,15.33-7.06,15.33-.08,0-1.58-.55-3.34-1.22-3-1.15-14-2.75-19.21-2.82C.68,168.38-.74,169.86.39,171.67ZM77.86,46c11.32,2.86,30.31,13.81,33,19l1,1.9h-3c-7.57,0-30.7-11.08-40.1-19.17C64.59,44.11,68,43.45,77.86,46ZM11.92,173.7A62,62,0,0,1,18,175c6.33,1.52,7,1.54,9.47.15,3.67-2,19.37-30.59,19.37-35.23,0-1.38-.92-2.69-4-5.69-4.63-4.54-6.37-7.62-7.19-12.8-.63-3.83-.1-10.42,1.21-15.27,1-3.69,6.1-15.21,12.65-28.51,3.16-6.41,7.53-15.52,9.72-20.25l4-8.58,2.56,2.36c6.84,6.3,14.74,11.11,25.22,15.4,6.74,2.75,11.64,4.3,15.83,5l2.26.37-3.25,8C100.3,93.51,87.85,117,81.45,126c-7.62,10.68-18.85,17.52-27.4,16.66l-3.13-.31-2.32,3.07a43.91,43.91,0,0,0-4.29,7.7c-1.09,2.56-4.19,8.91-6.9,14.12-5.06,9.76-5.94,13-4.13,15.34a23.85,23.85,0,0,0,5.15,3.21c6.52,3.3,3,2.72-6.25-1C24.55,181.67,9.93,173.69,11.92,173.7Z"/><path class="cls-1" d="M60,106.82c-.91-1.7-4-1.6-5.25.18s-1.23,2.92.06,4.34,3,1.45,4.58-.1S60.92,108.61,60,106.82Z"/><path class="cls-1" d="M59.61,95.49c1.62-.24,2-2.48.68-3.62-.85-.71-1.2-.63-2.32.49s-1.2,1.46-.5,2.31A2.64,2.64,0,0,0,59.61,95.49Z"/><path class="cls-1" d="M72.3,130.72C77.56,125.45,95,94.17,95,90c0-1.66-.59-2.66-3-5C87.65,80.85,79.09,75.35,72,72.22,60.35,67,58.61,67.59,53,78.44a200.19,200.19,0,0,0-11.51,26.2c-1.79,5.28-2.1,7.06-2.09,11.87,0,4.18.31,6.31,1.18,8.16,1.77,3.8,7.13,9.36,10.79,11.18C57.94,139.13,65.8,137.2,72.3,130.72ZM69.44,75.87C74,77.65,90,87.46,90,88.44c0,.43-.46.35-4.37-.7A46.25,46.25,0,0,1,67.78,78a26.45,26.45,0,0,1-3.87-4A31.06,31.06,0,0,1,69.44,75.87ZM46.53,124.21c-1.37-2.52-1.77-4.21-2-8.53-.27-4.79-.13-5.81,1.31-9.23,1.37-3.24,13.43-29,13.8-29.4a34.38,34.38,0,0,1,3.82,3.44c6.69,6.47,13,9.9,20.93,11.42a42.85,42.85,0,0,1,4.23.93,57.82,57.82,0,0,1-3.56,7C83,103.6,80.67,108.18,80,110c-3.67,9.3-11.37,19.63-16.41,22C57.56,134.89,50.6,131.68,46.53,124.21Z"/><path class="cls-1" d="M60,123.43a3,3,0,0,0,4.68-.55c1.65-2.51-.4-4.8-3.43-3.84A3.08,3.08,0,0,0,60,123.43Z"/><path class="cls-1" d="M70.91,106.87c-2.67,0-3.94,3.64-1.71,4.94,1.53.9,2.41.82,3.54-.31C74.62,109.61,73.54,106.87,70.91,106.87Z"/><path class="cls-1" d="M159.84,100.92c-.62-2.58-4.59-3.2-6-.92-.58,1,.23,4,1.21,4.62a4,4,0,0,0,2.51.07C159.76,104.17,160.38,103.14,159.84,100.92Z"/><path class="cls-1" d="M167.05,94.07c-.89-3-4.82-2.34-5,.89a2.86,2.86,0,0,0,3.37,2.67C166.92,97.26,167.57,95.84,167.05,94.07Z"/><path class="cls-1" d="M183.62,200.71c2,0,13.26-5.08,19.59-8.82,5.23-3.11,14.58-10.54,20.56-16.35,1.28-1.23,3.61-3.27,5.17-4.53a21.52,21.52,0,0,0,3.79-3.72c2.33-3.58-4.24-3.13-13.16.91-4.63,2.1-11.18,4.16-11.86,3.74a61.81,61.81,0,0,1-4.49-7.34c-2.14-3.83-6.13-10.13-8.86-14-4.76-6.73-4.92-7.07-3.82-8.21a20.32,20.32,0,0,0,5.33-10.89,53.54,53.54,0,0,0-4.24-26.23c-4.76-10.43-25.18-43.83-30.56-50a42.85,42.85,0,0,1-4.48-5.81c-2.07-4.63-9.46-4.16-21.32,1.35-5.07,2.34-12.81,7.55-20.24,13.61-6.37,5.19-9,9.06-9.33,13.56s3.61,12,15,28.93c2.33,3.44,7.85,11.81,12.27,18.59s9.4,13.67,11.12,15.36c4.82,4.78,15.91,10.19,21.57,10.52a40.05,40.05,0,0,0,7-1.05l5.26-1.15,1.84,3.32c1,1.81,4.86,7.53,8.53,12.68,6.21,8.69,9.58,13.73,9.4,14,0,.07-1.29,1.06-2.78,2.21-2.56,2-9.64,10.49-12.42,14.92C181,198.75,181.49,200.73,183.62,200.71ZM116.77,69.05c8.35-8.17,27.6-18.66,33.44-18.24l2.14.15-1.56,2.53c-4,6.44-25.46,20.41-37.27,24.22C108.27,79.41,109.47,76.19,116.77,69.05Zm74.6,122.88c.26-.42,2.18-2.47,4.25-4.55,4.6-4.61,5-5.16,5.07-8,.18-4.2-16-32.48-19.95-34.9-1.18-.72-2.78-.62-6.93.42-6.29,1.58-9.83,1.46-14.67-.54-3.6-1.47-8.95-5.35-12.4-9-2.64-2.76-9.8-13.13-17.73-25.67-3.82-6-9.32-14.51-12.21-18.85L111.56,83l3.36-1c8.93-2.55,17.16-6.78,26.29-13.49,5.86-4.32,9.74-7.69,12.52-10.9l1.49-1.73,5.1,6.93C169,74.7,182.6,97.57,186.93,107.73c5.15,12.07,5.12,25.22-.07,32.07L185,142.3l1.4,3.59a45.07,45.07,0,0,0,4.34,7.68c1.61,2.26,5.41,8.21,8.45,13.24,5.69,9.41,8,11.86,10.93,11.53a24.49,24.49,0,0,0,5.42-2.72c6.22-3.84,3.9-1.15-4.13,4.79C204.76,185.31,190.33,193.62,191.37,191.93Z"/><path class="cls-1" d="M159.37,116.06c-1.94-.11-3.46,2.58-2.59,4.58s1.84,2.57,3.73,2.21,2.82-1.83,2.31-4C162.35,117,161.4,116.18,159.37,116.06Z"/><path class="cls-1" d="M149.51,110.45c.65-1.51-1-3-2.73-2.47-1.05.36-1.16.7-.79,2.24s.62,1.79,1.71,1.63A2.6,2.6,0,0,0,149.51,110.45Z"/><path class="cls-1" d="M186.19,118c-1.75-7.24-19.37-38.4-22.95-40.59-1.42-.86-2.57-.88-5.78,0-5.82,1.52-15,6-21.32,10.34-10.53,7.27-10.95,9.05-4.63,19.51a201.15,201.15,0,0,0,16.35,23.48c3.57,4.28,4.93,5.48,9,8,3.57,2.17,5.54,3,7.57,3.25,4.17.47,11.71-1.21,15.17-3.38C185.88,134.64,188.33,126.93,186.19,118ZM137.9,91.83c3.87-2.92,20.59-11.47,21.43-11,.37.22,0,.57-2.88,3.36a46.14,46.14,0,0,1-17.58,10.13c-3,.82-5.42,1.37-5.45,1.2A32.26,32.26,0,0,1,137.9,91.83Zm29.3,44.76c-2.87-.15-4.51-.69-8.33-2.73-4.23-2.27-5-2.92-7.19-5.94-2.05-2.85-17.71-26.56-17.89-27.1a34.91,34.91,0,0,1,4.93-1.47c9-2.33,15.21-5.91,20.66-11.9a40,40,0,0,1,3-3.12A58.89,58.89,0,0,1,166.49,91c2.13,3.73,4.83,8.08,6,9.66,6,8,10.82,19.94,10.23,25.49C182.07,132.75,175.7,137,167.2,136.59Z"/><path class="cls-1" d="M173.55,124.7a3,3,0,0,0,2-4.27c-1.29-2.72-4.31-2.17-5.06.92A3.06,3.06,0,0,0,173.55,124.7Z"/><path class="cls-1" d="M165.12,106.74c-1.4,2.28,1,5.27,3.31,4,1.58-.84,2-1.63,1.59-3.18C169.39,105,166.48,104.5,165.12,106.74Z"/></g></g></svg>