<svg xmlns="http://www.w3.org/2000/svg" viewBox="0 0 147.86 192.59"><defs><style>.cls-1{fill:#262626;}</style></defs><title>Asset 33</title><g id="Layer_2" data-name="Layer 2"><g id="OBJECTS"><path class="cls-1" d="M147,71.2c-1.41-1.37-9.14-3.81-12.07-3.81a10,10,0,0,0-3.48.7c-1.33.6-1.45.89-.87,2.14s0,3.7-2.93,13.51c-3.48,11.71-11.3,37.42-11.91,39.16-.21.57-2.16-.92-5.77-4.38-6.14-5.92-9.43-8.06-14.77-9.61-8.29-2.41-16,1.58-20,10.39-7,15.27.35,29,17.9,33.64A45.37,45.37,0,0,0,114,153c8.23-2.09,7.48-.91,16.19-25.6,2.85-8.07,7.15-20.17,9.56-26.87s5.33-15.77,6.47-20.13C148.25,72.42,148.25,72.41,147,71.2Zm-7,11c-1.21,4-4,12.38-6.24,18.56s-6.4,18.21-9.28,26.72-5.65,16.27-6.15,17.24c-.73,1.41-1.73,2-4.83,2.87-11.44,3.21-24.87.43-31.34-6.5-3.44-3.67-4.41-6.51-4-11.83a18.88,18.88,0,0,1,4.78-11.53c6.09-6.55,13.66-4.38,25.24,7.21,9.33,9.34,10.37,9.18,13.14-2,.89-3.61,3.72-13.35,6.27-21.65s5.32-17.91,6.12-21.39c1.62-6.94,1.63-7,6.24-5.67l2.28.63Z"/><path class="cls-1" d="M56.12,28.26c0-1,.58-1.48,2.68-2,1.48-.36,8.72-2.48,16.09-4.67s14.28-4.2,15.36-4.44l2-.42L93.89,24c.92,4,2.79,10.9,4.15,15.41a71.75,71.75,0,0,1,2.26,8.4,7.71,7.71,0,0,1-2.67-.45,28.27,28.27,0,0,0-7.16-.41C79.25,47.55,73,54,73.75,64.2c.72,9.93,6.51,14.42,18.6,14.42a45.72,45.72,0,0,0,19.85-4.73c4.91-2.41,9.5-6.28,9.5-8,0-.6-2.08-7.45-4.62-15.25s-6.8-21.19-9.45-29.78C102.18,3.13,101.17.75,98.82.15c-2.57-.64-6,.4-29.62,9C57,13.59,45.37,17.77,43.32,18.44c-6.11,2-6.16,2.45-1.65,15.4,2.08,5.91,4.79,13.43,6,16.69s2.51,6.8,2.77,7.89l.48,2-2.27-1c-1.6-.7-4.18-1-8.82-1-8.2,0-12.43,1.46-17.25,6-4.12,3.88-5.94,8-5.94,13.27,0,8.12,4.75,13.93,13.25,16.21,4.49,1.21,12.36,1.22,18.68,0C57.8,92.15,69,87.47,70.86,84.55c1.28-2,.92-3.47-5.28-21.46C61.54,51.32,56.12,31.38,56.12,28.26Zm8.71,54.15c-1.79,1.14-9.91,4.33-13.49,5.32A62.53,62.53,0,0,1,40.5,89c-6,.24-7.75.08-10.48-.89-7.63-2.74-10.11-8.62-6.61-15.67,3.26-6.54,9.83-9.21,21.33-8.66,3.88.18,7.31.66,8.06,1.12a3.13,3.13,0,0,0,2.39.38c1.72-.66.88-7.07-1.74-13.21S44.13,25,44.57,24.28C44.74,24,47.2,23,50,22.06,55,20.45,88.89,8.34,93.77,6.45A14,14,0,0,1,97,5.54c.83,0,1.77,2.81,9.08,27.22,2.07,6.89,5.28,16.94,7.15,22.33l3.41,9.79-5.32,2.9c-7.35,4-11.81,5.3-18.61,5.39-7.49.09-11-1.37-12.81-5.29a14.33,14.33,0,0,1-1.23-4.42c0-4.23,3.44-8.5,8-9.87,3.8-1.15,11.76-.51,15,1.19,2.92,1.53,5.26,1.44,5.9-.22.21-.53-.44-3.56-1.45-6.72-2.78-8.72-6-20.64-7.52-27.62-1.4-6.56-2.84-9.06-5.26-9-2.13,0-36,9.77-40.2,11.6-3.32,1.44-3.57,3.11-1.7,12.09a264.12,264.12,0,0,0,12.2,41.46C65.41,81,65.6,81.92,64.83,82.41Z"/><path class="cls-1" d="M50.92,152c-2.8-1.62-7.21-4.54-9.79-6.48s-6.37-4.8-8.43-6.37l-7.34-5.52c-2.12-1.57-3.59-3.15-3.59-3.84,0-1.43,4.93-5.39,11.31-9.07,5.91-3.42,6.59-4.14,5.68-6.12-.45-1-1.73-1.83-4-2.57a43.93,43.93,0,0,1-5.5-2.26c-3.74-2-4.43-1.76-11.24,3.76-1.89,1.53-6.56,4.81-10.41,7.31-6.89,4.48-8.19,5.93-7.43,8.33.84,2.6,17,17.2,27.37,24.73L31.79,157l-3.88.8c-8,1.63-14.81,6.4-17.81,12.53a14.7,14.7,0,0,0-1.71,7.94c0,8.45,4.41,13.11,13.38,14.27,3.88.5,10.44-1.18,15-3.83,4.05-2.36,10-8.47,13.38-13.66,3.51-5.42,7.11-12.8,7.65-15.65S57.41,155.74,50.92,152Zm-.74,12.22c-5.68,11.3-13.48,19.54-21,22.19a21,21,0,0,1-5.8.91c-8.31,0-12.1-6.9-8.14-14.85,2.83-5.66,9-9,18.77-10.11,3-.33,5.77-.94,6.27-1.36,1.83-1.51.7-3.82-3.3-6.77l-9.09-6.67C23,144,6.65,129.72,6.3,128.72c-.08-.24,2-1.71,4.61-3.25a104.28,104.28,0,0,0,9.91-6.93L26,114.42l2,1,2,1.06-4,2.86c-5.15,3.67-8.11,7-9.2,10.28-1.31,4-1.69,3.55,13.68,15.52a162,162,0,0,0,13.75,9.47L51.67,159C52.36,159.44,52.05,160.48,50.18,164.21Z"/></g></g></svg>