<svg xmlns="http://www.w3.org/2000/svg" viewBox="0 0 175.75 145.74"><defs><style>.cls-1{fill:#262626;}</style></defs><title>Asset 9</title><g id="Layer_2" data-name="Layer 2"><g id="OBJECTS"><path class="cls-1" d="M152.65,122.84c0-3-2.26-6.07-4.53-6.07-2.87,0-3.43,5.56-.86,8.68C148.71,127.22,152.65,125.3,152.65,122.84Z"/><path class="cls-1" d="M138.47,114.3c2.92-.41,4-6.53,1.47-8.6-3.64-3-6.64,1.68-4.56,7.11A2.77,2.77,0,0,0,138.47,114.3Z"/><path class="cls-1" d="M137.5,120.54c-1.71.66-2.44,7.47-.95,9,2.2,2.2,6-.58,6-4.39C142.54,122.13,139.81,119.65,137.5,120.54Z"/><path class="cls-1" d="M30,59.09c-2.8,2.52-3,19.49-.29,22.21,2.55,2.56,6.89,2.22,8.44-.66,2-3.69.74-18.38-1.79-21.17S32.68,56.67,30,59.09Z"/><path class="cls-1" d="M76.71,92.17c7.36,4.48,19.89,1.85,27.54-5.81,4.79-4.78,6.84-9.67,6.84-16.28,0-22.61-29.73-26.74-40.73-5.66-3.49,6.7-3.41,16.83.17,21.85A25.48,25.48,0,0,0,76.71,92.17Zm4.63-33c2.69-3,3-3.12,9-2,7.9,1.46,10.24,2.76,12.34,6.81,3.56,6.88,1,15.12-6.4,20.61C94.41,85.93,90.78,87,87,87.32c-5.72.48-6.45.26-9.61-2.9C74.7,81.68,74,80.05,74,76.21,74,71,77,64.05,81.34,59.14Z"/><path class="cls-1" d="M133.92,51.16c2.65,2.29,4.32,2.71,10.85,2.71,10.84,0,14-3.75,11-12.93-2-6.14-5.75-7.86-13.56-6.22s-8.32,2-10,8.33C130.81,48.37,130.84,48.52,133.92,51.16Zm10-10.12c3.43-.61,4.35-.36,5.33,1.48a9.94,9.94,0,0,1,1.19,3.4c0,2-11.19,1.5-12-.56C137.52,43,138.9,41.92,143.89,41Z"/><path class="cls-1" d="M156.24,18.62c-.86-8-5.84-10.81-19.31-10.81-10.45,0-15.09,2.47-18.51,9.83l-2.22,4.77H101c-8.36,0-18.49-.32-22.5-.71L71.21,21,71,15.63c-.22-6.23-2.72-11.7-6.19-13.55C61.84.48,40.31-.65,33.18.42c-7.45,1.11-11.47,5-14.06,13.37-2.06,6.71-2.28,7-7.13,8.35C3.8,24.46,1.69,27.65.82,39.07c-1,13.08-1.11,58.31-.19,80.42.72,17.44.81,18,3.83,21.34l3.1,3.46,53.73.59c29.55.33,57.78.7,62.72.83,9.63.24,23.27-1,35.87-3.16,13-2.27,12.48-.9,13.39-36.49.43-16.66,1.28-37.36,1.91-46,1-14.25.72-21.08-1.47-31.33-.71-3.32-4.19-5.17-9.76-5.19C157.77,23.5,156.69,22.82,156.24,18.62ZM124.6,19c4-7.46,23-7.4,25.65.09l1.16,3.35h-14c-7.69,0-14-.29-14-.64A10.67,10.67,0,0,1,124.6,19ZM24,18.3c1.44-5.78,4.17-10.4,6.63-11.23,3.67-1.24,28.39-.7,30.95.68,1.37.73,2.54,2.86,3,5.4.4,2.31,1,5.09,1.26,6.17.45,1.64-.22,2-4,2-4.31,0-4.58-.21-5.71-4.38-1.41-5.25-2.45-5.73-12.4-5.73-10.14,0-13.14,1.22-14.33,5.84-.68,2.65-1.68,3.81-3.55,4.08C23.43,21.44,23.25,21.17,24,18.3Zm19.05,3c-6.36,0-8.32-.37-8.32-1.57,0-2.15,2.52-2.92,9.51-2.92,5,0,6,.35,6.54,2.24C51.3,21.14,50.79,21.29,43,21.29ZM166.13,134.51l-9.82,1.8c-13.11,2.4-26.76,2.69-91.51,1.9-39.73-.48-55.06-1-56-2s-1.53-7.67-1.9-19.1L6.32,99.35H29.5c12.74,0,23.18.33,23.18.73,0,2.29,10.76,12.2,15.41,14.18,16.14,6.9,36.92,2.29,49-10.89l4.7-5.14,44.37.74Zm-101.31-81C70.51,48,76,45.94,87.47,45.2q23.21-1.52,31.77,14.67c3.82,7.19,3.53,20.48-.62,29-4,8.29-10.75,15.09-18.26,18.53-7.76,3.56-19.2,4.42-26.71,2-7.83-2.51-14.73-9.78-17.13-18C52.72,78.31,56.35,61.77,64.82,53.52Zm99.5-23.7,5.48.8L169.08,42c-.39,6.24-1.31,20.06-2,30.72l-1.33,19.38h-41l1.84-4.21c1.24-2.84,1.87-7.53,1.91-14.4.05-9.19-.27-10.84-3.33-16.82-6.08-11.89-19-19.16-33.68-18.9-9.41.16-23.58,5-29.8,10.27C51.41,56.58,45.82,77.61,49.91,92.06c.41,1.44-2.61,1.74-21.37,2.09l-21.85.4L6.37,64.09c-.17-16.75-.15-31,.07-31.6s1.88-1.92,3.72-2.87c2.94-1.52,12.1-1.66,76-1.17C126.13,28.76,161.3,29.37,164.32,29.82Z"/></g></g></svg>