<svg xmlns="http://www.w3.org/2000/svg" viewBox="0 0 216.4 260.27"><defs><style>.cls-1{fill:#262626;}</style></defs><title>Asset 59</title><g id="Layer_2" data-name="Layer 2"><g id="OBJECTS"><path class="cls-1" d="M43.62,90.87C46,92.37,47,92.16,53.45,89c10-5,5.52-9.65-4.86-5.06C43.13,86.32,41.05,89.25,43.62,90.87Z"/><path class="cls-1" d="M65.54,109.88c3.56,0,11.67-7.63,11.67-11,0-2.73-2.79-4-5.55-2.53-3.32,1.77-9,8.94-9,11.31C62.61,109.3,63.37,109.88,65.54,109.88Z"/><path class="cls-1" d="M62.46,21.75c-3.93-3.31-5.87-3.25-6.38.18-.21,1.44.79,3.2,2.68,4.69C65.46,31.89,69,27.24,62.46,21.75Z"/><path class="cls-1" d="M51.41,50.85c2-2.37.21-3.91-5.29-4.65-3.29-.44-4.79-.1-6,1.33-1.4,1.69-1.33,2.12.54,3.49C43.53,53.11,49.62,53,51.41,50.85Z"/><path class="cls-1" d="M107.75,0c-1.46.3-1.85,1.47-1.69,5.06a20.53,20.53,0,0,0,1.44,7c1.44,2.69,4,3,4.92.67.35-.92-.13-4.23-1.06-7.38C110.08,1.06,109.19-.25,107.75,0Z"/><path class="cls-1" d="M123,213.23c-1.08,0-1.21,4.93-.15,6,1.48,1.49,3.75.71,3.75-1.27S124.62,213.23,123,213.23Z"/><path class="cls-1" d="M133.09,207.81c-2.41-.28-3.08.12-3.08,1.78a5.12,5.12,0,0,0,.79,2.94c1.62,1.61,5.38.14,5.38-2.11C136.18,208.79,135.31,208.07,133.09,207.81Z"/><path class="cls-1" d="M143.91,210c-1.63,1.35-2.12,6.8-.75,8.17a4.54,4.54,0,0,0,3.09.47c1.75-.26,2.37-1.3,2.63-4.4C149.25,209.74,146.75,207.61,143.91,210Z"/><path class="cls-1" d="M73.79,155.43c1.9-2.29,1-5.67-1.53-5.67a4.16,4.16,0,0,0-3.7,5.46C69.44,157.49,72,157.59,73.79,155.43Z"/><path class="cls-1" d="M162.58,24.7c0,1.39,1.57,1.13,6.95-1.17s8.24-5.05,7.13-6.83C175.24,14.4,162.58,21.6,162.58,24.7Z"/><path class="cls-1" d="M159.26,99.17c-1.5.92,1,5.51,4.7,8.75,1.72,1.5,2.65,1.68,3.79.74C170.92,106,162.82,97,159.26,99.17Z"/><path class="cls-1" d="M210.75,182.53A93.54,93.54,0,0,1,196.84,174c-8.31-6.22-15.3-10.11-22.11-12.31-3.31-1.07-4.29-2-4.91-4.93-3.52-16.34-18.51-34-32.79-38.61-4.72-1.51-5.9-2.38-5.9-4.32a7.42,7.42,0,0,1,2.37-4.58c3-2.65,27.92-33.5,30.84-38.08a40.76,40.76,0,0,1,3.56-4.86,5.89,5.89,0,0,0,1.42-1.94c0-.45-12.64-15.3-19.95-23.42l-3.94-4.38-26-.38c-14.28-.21-26.8-.11-27.81.2S88.56,38.81,87,41.11,80.39,49.83,75.68,55.4s-8.57,11.13-8.57,12.4,2.31,4.54,5.16,7.3S82.68,86.25,89.09,93.74s12.39,13.91,13.29,14.25c1.32.51,1.39,1.36.38,4.64s-1.93,4.19-5.81,5.21c-7.86,2.06-20.06,8.55-26.06,13.85A55.94,55.94,0,0,0,55.08,155.9c-2.35,7-2.61,7.31-5.81,7-7.7-.81-21.94,9-31.67,21.93A156.85,156.85,0,0,1,6.14,197.92C2.55,201.56-.21,205.1,0,205.79s2.91,2.07,5.94,3.06c9,2.91,17.12,7.14,30.26,15.72,14.85,9.69,29.76,17.67,40.45,21.66,9.47,3.52,28.87,8.56,33,8.56,1.63,0,4.73,1.24,6.87,2.75,5.17,3.65,9.48,3.63,12.88,0a12.56,12.56,0,0,0,3-5.22c.25-1.61,1.73-2.72,4.85-3.65a88.49,88.49,0,0,0,11.23-4.74,107.85,107.85,0,0,1,12.92-5.37c15.19-4.84,33.43-15.87,42-25.34,5.59-6.23,11.71-17.82,12.74-24.11C216.77,185.34,216.62,185.16,210.75,182.53ZM158.33,70c-.36.63-5.46,7-11.33,14.06-14.51,17.6-18.13,21.59-18.07,19.94.09-2.72,6.4-32.38,7-33C137.16,69.77,159.05,68.8,158.33,70Zm-34.55,29.5c-.47,2.12-1.21,2.48-4.6,2.25-2.23-.15-4.2-.78-4.38-1.4-.58-2.07-7.26-29.71-7.26-30.08s21.71.4,22.17.79C129.93,71.24,128.42,78.5,123.78,99.48Zm-7.93,15.65-9.37.18,1.88-2.87a14.84,14.84,0,0,1,5.76-4.49c3.53-1.47,4.13-1.43,6.68.46a12.1,12.1,0,0,1,3.61,4.3C125.18,114.79,124.67,114.94,115.85,115.13Zm28.37-57.21a47.55,47.55,0,0,0,1.51-8.2,5.7,5.7,0,0,1,.66-3c.37-.36,4,3.38,8,8.32s7.13,9.07,6.92,9.18-4.47.06-9.47-.12l-9.1-.33ZM133.83,41.65l8.11-.24-1.82,7.25c-1,4-2.13,7.55-2.49,7.91-.53.53-9-9.6-11.25-13.54C126,42.34,128.79,41.81,133.83,41.65Zm-12.48,6.08c.65-.21,12,14.42,12,15.48,0,.33-4.82.61-10.72.61H112l4.39-8C118.75,51.51,121,47.84,121.35,47.73Zm-9.12-6.8,4.15.69-4.11,8.29c-2.26,4.56-4.43,8.3-4.85,8.3a3.72,3.72,0,0,1-1.86-1.41c-1.27-1.59-8.13-15.06-8.13-16S107.13,40.09,112.23,40.93ZM85.36,53l7.21-9.14,4.67,9.44c2.57,5.19,4.68,9.67,4.68,10s-1.14.46-2.53.34-6.74-.5-11.88-.84l-9.34-.63ZM84,78.58,74.54,68.06,88,68.89c13.7.85,15,1.36,15.08,5.79,0,1.34,1.3,8.36,2.86,15.59s2.68,13.33,2.46,13.55C107.87,104.3,96.12,92.14,84,78.58ZM57.68,170.26c4-30.45,29.31-50.21,62.8-49,10.07.38,12.18.83,18.78,4.09,13.84,6.81,22.28,19.31,26.64,39.49,1.26,5.84,2.3,10.66,2.3,10.72s-7.83-.56-13.07-1.21l-4.63-.58-.49-5.9c-.95-11.4-8.93-22.54-20.51-28.62-4.85-2.54-7.08-3-15.31-3-9.08,0-10.18.25-19.25,4.74-12.08,6-21.24,15.25-23.88,24.12a43.77,43.77,0,0,0-1.71,7.69c0,1.32-1.29,2.11-4.22,2.59C56.8,176.81,56.82,176.81,57.68,170.26ZM93.47,155.9c11.22-2.77,25.76-2.71,40.2.16l7.6,1.52,2.2,5.87c4.08,10.9,4.09,11.58.25,11.58-5.18,0-17,4-23,7.82-2.94,1.88-5.73,3.37-6.18,3.33a85.31,85.31,0,0,1-8.23-4c-7.81-4.07-19.64-7.14-27.67-7.17-2.62,0-4.77-.25-4.77-.54,0-2.69,5.21-13.37,7.12-14.58C82.29,159.09,87.92,157.27,93.47,155.9Zm4.62-10.05c10.13-5,19.1-5.75,27.1-2.3,3.17,1.36,6.69,3.51,7.83,4.79,2,2.27,2,2.3-1.33,1.58-7.21-1.55-27.11-2.13-32.58-.95a71.06,71.06,0,0,0-7.76,2C86.36,152.91,91.1,149.29,98.09,145.85Zm108.6,53.24c-7.8,15.52-29.23,29.56-62.74,41.07-12.52,4.31-15.16,5.87-17.22,10.24-2.24,4.74-4.28,5.12-8.3,1.56a10.75,10.75,0,0,0-6.74-2.79c-5.86,0-26-5.31-36.25-9.55-11.31-4.68-18.35-8.51-34.18-18.59-14.09-9-21.29-12.7-28.08-14.55-2.78-.76-5.76-1.58-6.62-1.84-2.1-.61,1.31-4.45,4.73-5.31,1.34-.36,5.14-4.18,8.44-8.52,9.88-13,19.59-20.51,29.55-22.91,2.81-.68,3-.46,3.5,4,.37,3.37,0,5.1-1.1,5.9l-3.49,2.43c-3.37,2.36-.54,2.84,9.55,1.6,14.43-1.77,23.61-1.51,33.22.95,10.1,2.59,17.77,6.29,24.34,11.78,2.64,2.21,5.52,4,6.39,4,2.34,0,1.91-3.43-.79-6.31-1.3-1.38-2.07-3-1.7-3.59,1.26-2,15.34-7,22.92-8,7-1,21.9-.24,31.7,1.6a14.59,14.59,0,0,0,6.74-.36c2.71-1.07,2.6-1.19-3-3.62s-5.79-2.57-5.72-7.39a32.54,32.54,0,0,1,.26-4.87c1.27,0,19.37,10.7,23.61,13.95a76,76,0,0,0,10.39,6.64C211.48,189.25,211.5,189.53,206.69,199.09Z"/><path class="cls-1" d="M191.51,66.35c.64-1.93-5.29-4-8-2.83-2,.92-2.06,1.06-.18,2.94C185.54,68.64,190.78,68.57,191.51,66.35Z"/><path class="cls-1" d="M144.23,15.55c1.51-3,.84-5.65-1.46-5.65-2,0-4.29,4.91-3.37,7.32S142.57,18.84,144.23,15.55Z"/><path class="cls-1" d="M186.34,33.49c-3,0-11.31,5-13,7.79-1.87,3,10.12-.45,14.28-4.15C190.39,34.62,190,33.49,186.34,33.49Z"/><path class="cls-1" d="M175.6,85.45c-5.94-.67-6.63.64-2.2,4.12,3.51,2.76,8.08,3.05,9,.57S181.35,86.1,175.6,85.45Z"/><path class="cls-1" d="M155.68,155.7c2.8-.54,2.75-3.41-.13-7.69-4.83-7.16-8.74-3.35-4.16,4.06C152.88,154.47,154.57,155.91,155.68,155.7Z"/></g></g></svg>