<svg xmlns="http://www.w3.org/2000/svg" viewBox="0 0 278.5 197.39"><defs><style>.cls-1{fill:#262626;}</style></defs><title>Asset 34</title><g id="Layer_2" data-name="Layer 2"><g id="OBJECTS"><path class="cls-1" d="M30.8,134.67c5.58-8.85,6.63-17.21,5.85-46.25-1.29-47.42-5-65.85-16.2-80.54C17,3.34,8.72-.8,5,.13-.15,1.42-.46,3.68.33,33.33c1.5,56.16,2,121.22,1,134.85-1.15,16.2-.42,22.13,3.07,24.95a9.12,9.12,0,0,0,4.67,2c7.29,0,9.83-6.55,11.06-28.4C21.18,148.62,20.24,151.44,30.8,134.67ZM13.39,166.6C12.9,176,11.92,184.72,11.23,186c-3.8,7.09-5.1-.73-3.41-20.45,1.73-20.12,1.91-49.24.68-110-.68-33.14-.62-48,.19-48,2.37,0,8.55,7.48,11.59,14,6.81,14.63,9.18,33.35,9.32,73.59.1,29.66-.23,31.47-7.39,40.54C15.32,144.41,14.4,147.63,13.39,166.6Z"/><path class="cls-1" d="M18.91,86.08c-2.47-3.85-3.37,2-3,19.19.32,14.06.79,18.15,2.43,21.25,3.38,6.41,4.41,2.08,3.55-14.94C21.05,94.37,20.33,88.27,18.91,86.08Z"/><path class="cls-1" d="M20.14,72.7c2.91,0,4.07-4.28,1.8-6.55-1.65-1.65-2-1.65-3.6,0a4,4,0,0,0-1.05,4.17A3.38,3.38,0,0,0,20.14,72.7Z"/><path class="cls-1" d="M181.8,135.6c-2.46,0-3.85,2.46-2.86,5.06s4.94,2.06,5.76-.55C185.63,137.22,184.58,135.6,181.8,135.6Z"/><path class="cls-1" d="M161,111.57c-3.38-1.29-6.74,3.91-4.17,6.48a4.47,4.47,0,0,0,3.09.47C162.94,118.09,163.79,112.63,161,111.57Z"/><path class="cls-1" d="M171.23,100.2c0-2.6-.51-3.35-2.23-3.35-2.34,0-3.49,2.81-2.36,5.76S171.23,103.88,171.23,100.2Z"/><path class="cls-1" d="M169.81,117.35c1.77-1.36,2.4-3.22,2.12-6.18-.17-1.79-3.76-1.82-5.53-.06-1.45,1.46-1.82,5.67-.6,6.89S167.76,118.94,169.81,117.35Z"/><path class="cls-1" d="M194,152c7.46-8.16,11.67-15.69,16.08-28.73,3.08-9.14,3.66-12.64,4.08-24.69.43-12.38.15-15.36-2.38-25.13-11.18-43.25-43.2-67.31-87.18-65.51-20.54.84-36.18,7-51.15,20.22-7,6.2-17.38,21.23-21.38,31.08-8.52,21-9.55,44.12-2.83,64,5,14.74,9.2,21.69,19.15,31.48,11.69,11.49,27.93,20.58,45,25.15,8.91,2.39,22.73,2.22,33-.4C164.09,174.91,183,164,194,152Zm-44,20.31c-6.32,2.15-10,2.63-19.13,2.53a123.45,123.45,0,0,1-16-1c-14-2.78-36.58-15.5-45.28-25.54-6.19-7.14-14.3-23.74-16.32-33.39-2.38-11.44-2.15-28.66.55-39.42a119.09,119.09,0,0,1,7.54-19.55c9.84-19.76,28.12-34.91,47.53-39.38,8.17-1.89,33.71-1.92,41.56,0,12.5,3,22.24,8.68,32.6,19.08,7.85,7.91,10.57,11.61,14.92,20.35a117.31,117.31,0,0,1,7.54,19.55c2.71,10.79,2.93,28,.53,39.42-2,9.66-8.76,23.86-15,31.71C183.11,156.52,167.49,166.31,150,172.26Z"/><path class="cls-1" d="M151.29,38.16c-12.14-5.89-15.81-6.47-27.62-4.36s-19.3,6.46-28.8,16.68c-20,21.48-24,48.36-11,73.13a55.45,55.45,0,0,0,35.43,28.24c17.3,4.66,36.84-1,50.74-14.84,10.77-10.69,15.53-24.15,15.47-43.72C185.45,68.5,173.22,48.8,151.29,38.16Zm.53,104.49c-6.41,3-9.07,3.59-17.66,3.86-16,.52-28.4-4.56-38-15.51a56.89,56.89,0,0,1-14-40.58c.43-7.39,1.21-10.16,5.12-18,8-16.21,21.84-28.81,34.43-31.45,4.62-1,8.19-1,14.83.08,11.1,1.73,19.09,5.4,26.17,12,12,11.19,16.94,23.18,16.94,40.84C179.66,118.23,170.79,133.78,151.82,142.65Z"/><path class="cls-1" d="M249.08,63.48c1.86-1.86,1.69-5-.31-5.78s-5.17,3.35-4.32,5.57C245.19,65.18,247.28,65.28,249.08,63.48Z"/><path class="cls-1" d="M211,49.11c2.08,14.24,4.83,18.4,18.17,27.6,6.29,4.34,7.27,7.36,8.87,27.61a162.11,162.11,0,0,1,0,28.64c-.64,7.32-1.16,23.17-1.16,35.22,0,19.86.19,22.24,2.21,25.56,1.73,2.84,3,3.65,5.68,3.65,9.09,0,11.76-6.47,10.77-26.09-.38-7.59-1.16-29.21-1.73-48.05-1.19-39.57-1.52-37.84,9.61-50.55,11.84-13.55,15-24.11,15-50.59,0-16.69-1.07-20.19-6.2-20.19-4.84,0-6.24,4-7.38,21.23C263.38,46.32,261.71,48,262,26c.2-15.62,0-18.43-1.76-21.07-2.6-4-6.84-4-9.38-.18-1.35,2.07-2.11,6.9-2.75,17.41-.93,15.17-1.61,19.05-3.37,19.05-.59,0-1-7-1-16.35,0-17.53-1.11-22.1-5.69-23.55-5.61-1.79-8.86,5.76-9,20.81-.08,10.33-1.44,19.6-2.47,16.85-.35-.93-1.19-8.26-1.87-16.29-.93-11-1.75-15.3-3.3-17.42-2.86-3.88-6.32-4.17-8.58-.72C210.25,8.46,209.16,36.2,211,49.11Zm5.19-41.37c.5-.64,1.62,8,2.69,20.67,1.43,16.92,4,21.73,10,18.53,3.36-1.8,4.74-7.28,5.81-23.11.54-8,1-14.73,1-14.88s.55-.29,1.18-.29,1.12,5.94,1.12,15.56c0,20.11,1.75,25.14,8,23.14,4.3-1.36,6.72-8.86,7.37-22.84.93-20,2.49-18.85,2.53,1.91,0,10.42.53,19.26,1.19,20.5,1.45,2.71,5.78,2.82,8.14.2,3.1-3.42,4.13-7.85,5.23-22.35,1.05-13.73,2.21-19.3,2.43-11.53.3,11-.34,25.94-1.37,31.83-1.55,8.93-4.75,15.4-11.08,22.37a143.18,143.18,0,0,0-9.57,12l-4.3,6.15L248,114.79c2.06,45.84,2.19,74,.33,76.24s-2.87,2.33-4.32.46c-2.37-3.07-2.51-6.83-1.43-43.13,1.15-39.24.32-59.91-2.71-67.16C238.93,79,235,74.85,230.19,71c-12-9.59-12.64-11.41-13.52-39.86C216.27,18.46,216.07,7.94,216.23,7.74Z"/></g></g></svg>