<?xml version="1.0" encoding="utf-8"?>
<svg viewBox="0 0 150 180" xmlns="http://www.w3.org/2000/svg">
  <path fill="#fff89a" d="M84.6 86.5c-1.1 1.5-3.8 2-4.4.5-.6-1.5 0-3 1.7-4.2 3-2.3 5 .5 2.7 3.7Zm15.9 74.9c3.3.2 5.9 3.2 3.5 4.2-1.5.5-1.6.5-3.9-.9-2.8-1.7-2.6-3.5.4-3.3Z"/>
  <path fill="#fff562" d="M27.8 107.8c-4.9-2.6-6.5-3.9-8.6-7-3.4-5-1.4-6.1 3.6-2a54 54 0 0 0 8.8 5.3c4.5 2.2 5.3 2.8 5.2 4-.4 2.2-4.4 2.1-9-.3ZM93 64.7c1.6-3.2 3-6.6 4.1-10 1.5-6 2-12 1.7-18.2-.2-4.3-.2-4.9.8-4.9 2 0 3.6 5.2 3.6 11.8 0 7-.4 8.5-5.9 20.4-3.2 7-4.3 8.8-5.3 9-.7.1-1.4-.1-1.8-.7a28 28 0 0 1 2.8-7.3v-.1Zm-25.3 56.9c6 13 12.2 23 18 29 6.2 6.2 6.4 7.4.7 4.8-2.1-1.2-4-2.7-5.6-4.5l-7.2-7.7c-5.1-5.6-6.5-8.3-9.7-19.3-2.8-9-3-11.3-2-12 1.1-.7 1.6.2 5.9 9.7h-.1Zm66.4 11.6c-.1-4.8-.9-9.5-2.5-14-1.7-5-2.1-7.4-1.7-7.8 2.6-2.6 9.4 11.4 9.4 19.4 0 4.2-1.2 8.9-2.8 10.7l-1.5 1.7-.3-1.6c-.2-.9-.5-4.6-.7-8.4h.1Z"/>
  <path d="M13.2 108.8c8 8.4 13.9 10.5 27.7 10.2l9-.2.4 2.2c.7 2.5 1.5 5 2.5 7.5 9.7 25 27 41.8 48.2 46.5a61 61 0 0 0 24.8-.9c12.5-4.8 21.1-20.9 21.1-39.4 0-9.8-2-16.8-9.5-32.2A85.3 85.3 0 0 0 113.3 73l-3.3-3 2.1-5.3c6.4-15.9 5-35.8-3.2-48C104 9.7 99.6 6.6 90 3.6 86 2.2 84 2 75 2H64.7l-10 4c-5.7 2.4-11.5 5-17 8.1-6.5 3.7-8 4.9-15 12.2a79.4 79.4 0 0 0-16.5 22A49 49 0 0 0 1 74a42.8 42.8 0 0 0 12.2 34.6v.2Zm34.5-16.5c-.5 5-.2 4.9-8 3.4C31.5 94 27.3 90.6 24.4 83a20 20 0 0 1-1-9.5c.2-5.6.3-6.3 3-12a61.6 61.6 0 0 1 30.7-31c11.8-5.7 21.5-5.3 28.1 1.1 4.3 4.2 5.4 12.7 3 22-1.8 6.5-1.7 6.4-5 5.3-6.6-2.3-16.6 1-23.3 7.5a44.7 44.7 0 0 0-12.1 26l-.1-.1Zm69-10.9c11.7 11.2 15 16.5 22 35a75 75 0 0 1 3 9.5c1 4.7.9 15-.3 20.3-2.2 10.2-9.3 20.6-15.8 23.5a36 36 0 0 1-23 .9c-6.1-1.3-12-3.6-17.4-6.9A88.8 88.8 0 0 1 66 143.8a86.2 86.2 0 0 1-14.2-45.3c0-15.2 7.8-29.4 19.4-35.1 3.2-1.6 8.5-1.9 11.5-.6l1.8.7-2 3.6c-3.8 6.7-7.4 12-8.6 12.3-1.8.6-5.5 6.5-6.3 9.7-1.5 10-.3 20.1 3.4 29.5a68.9 68.9 0 0 0 18.5 29.1c10.6 8.7 20.3 10.7 29.6 6.1 4.4-2.1 9-6.3 10.4-9.4 2.2-4.8 1-16.3-2.6-27a64.7 64.7 0 0 0-19.3-29.8c-2.8-2.4-5-4.6-5-4.8a70 70 0 0 1 5.7-9.3c.3 0 4 3.6 8.6 8l-.2-.1Zm-42.6 28.7a80 80 0 0 0 22.1-19.3c.7-1 1.6-2 2.6-2.9 1.2 0 12 9.9 15.5 14.3a58.4 58.4 0 0 1 10.1 17.5c1.9 5 2 6 2 12.9 0 6.5-.1 7.8-1.3 10a26.8 26.8 0 0 1-9 8.7 20 20 0 0 1-7.1 1.4c-4.8.2-5.2.1-9.5-2-10-5-18.8-17.4-24.6-34.6-1.7-5-1.8-5.5-.8-6ZM14.4 44.6c3.5-5.4 13-16.6 17-20.1A127 127 0 0 1 65.6 7.6a63 63 0 0 1 22.5.2c5 1.4 9.5 4 13.4 7.3 3 3 7.6 13 8.8 19 1.5 7.6 1 17.4-1.3 24.1-7.2 19.2-20 35.9-36.7 47.8-1.6 0-1.8-10.5-.3-15.6 1-2.8 2.5-5.4 4.2-7.8C92 60.6 96.5 47 91.9 34.8c-1.5-4.5-5-8.2-9.3-10.1-4-2-4.6-2-10.7-2a33 33 0 0 0-18.5 4.7 63.2 63.2 0 0 0-30.8 29.9 35 35 0 0 0-5.1 18.2c0 11.3 6 20.7 15.2 23.9 2.9.8 5.8 1.3 8.8 1.7l5.9.7.4 4.5.7 6.4.4 2H42c-11.5-.1-18.4-2.7-24.9-9.3-3.3-3-6-6.8-7.9-10.9-7.2-14-5.1-34.3 5-50l.2.1Z" filter="drop-shadow(rgba(0,0,0,.3) 2px 1px 2px)" style="fill: rgb(255, 238, 2);"/>
</svg>