<?xml version="1.0" encoding="utf-8"?>
<svg width="100%" height="100%" viewBox="0 0 852 902" version="1.1" style="fill-rule:evenodd;clip-rule:evenodd;stroke-linejoin:round;stroke-miterlimit:2;" xmlns="http://www.w3.org/2000/svg">
  <path id="std-stroke" d="M609.375,13.25c-49,-14.125 -157.25,-17.792 -202.792,-6.917c-18.041,4.334 -56.583,12.875 -85.75,19.042c-79.166,16.667 -130.958,43.208 -180.666,92.667c-61,60.625 -100.5,133.75 -127.667,236.125c-10.833,40.25 -12.25,54.75 -12.5,125c0,71.416 1.042,84.083 11.958,124.291c22.667,83.334 75.417,169.625 132,215.417c50.875,41.208 119.792,69.5 192.25,78.958c122.667,16.084 255.375,-16.666 347.625,-86.166c79.167,-59.5 135.125,-163.75 158.584,-295.084c12.5,-70.833 11.625,-201.416 -1.959,-256.166c-31.708,-128.167 -110.416,-212.375 -231.083,-247.167Zm205.292,508.333c-31.042,160.084 -96.5,255.875 -211.667,309.875c-25.715,11.796 -52.258,21.698 -79.417,29.625c-27.291,7.292 -55.208,10.417 -102.958,11.625c-74.625,1.917 -103.625,-1.625 -155.375,-18.958c-47.75,-16 -79.833,-34.75 -114.417,-66.667c-134.708,-124.958 -168.625,-353.75 -79.583,-537.083c57.125,-117.667 135.083,-177.125 263.625,-201.208c21.417,-4.167 53.667,-11.375 71.708,-16.334c37.25,-10.291 81,-11.791 137.5,-4.666c144.125,18.041 235.5,98.625 270.417,238.5c11.917,48.333 12.125,193.5 0.167,255.125l-0,0.166Z" style="fill-rule: nonzero; fill: rgb(255, 238, 2);"/>
  <path d="M 774.5 458.333 C 780.75 458.333 783.333 461.542 783.375 469.5 C 783.375 482.542 772.333 488.625 764.875 479.667 C 764.429 479.142 764.029 478.583 763.671 477.992 C 758.513 469.458 764.525 458.533 774.5 458.333 Z M 103.792 536.167 C 102.25 554.958 88.667 564.167 83.208 550.125 C 77.75 536.083 83.292 521.417 94.417 519.875 C 104.167 518.458 105.167 519.875 103.792 536.167 Z M 70.292 408.25 C 64.542 402.5 67.083 379.667 73.75 377.083 C 79.046 376.104 84.504 377.442 88.75 380.75 C 95.833 386.042 96.417 388.75 91.667 399.167 C 86.375 410.875 76.958 414.875 70.292 408.25 Z M 727.292 165.542 C 720.083 174.208 715.833 174.5 709.5 166.833 C 698.792 153.833 701 135.25 713.25 135.25 C 726.042 135.25 735.542 155.625 727.292 165.542 Z M 755.292 405.833 C 755.292 421.625 746.25 431.417 737.167 425.792 C 733.792 423.75 731.792 416.125 732.667 408.542 C 733.792 398.625 737.042 394.583 744.75 393.542 C 753.625 392.25 755.292 394.167 755.292 405.833 Z M 131.958 433.917 C 134.75 453.875 116.5 465.458 104.667 451.167 C 100 445.542 100.417 441.875 106.75 432.167 C 116.167 417.833 129.792 418.792 131.958 433.917 Z M 769.792 565.625 C 762.042 569.75 759.5 568.917 755.333 561.208 C 748.875 549.208 757.208 531.875 768.458 534 C 780.417 536.292 781.417 559.375 769.792 565.625 Z" style="fill-rule: nonzero; fill: rgb(242, 229, 46);"/>
  <path id="text-save" d="M 270.167 296.708 C 264.167 309.583 259.208 326.042 259.167 333.333 C 259.083 351.417 251.25 364.625 240.542 364.625 C 235.146 364.221 230.517 360.625 228.792 355.5 C 227.042 350.458 228.25 337.458 231.208 326.583 C 236.667 306.708 234 268.25 227.042 264.083 C 225.042 262.833 219.833 269.125 215.667 278.042 C 208.5 292.542 189.625 302.167 194.833 288.375 C 206.821 257.3 212.404 224.121 211.25 190.833 C 210.125 158.25 211.458 151.833 218.458 147.417 C 225.458 143 228.208 143.625 236.458 153.667 C 244.708 163.708 245.542 169.208 242.792 194.792 C 239.833 222.542 247.167 270.833 254.375 270.833 C 255.917 270.833 266.667 259.125 278.333 244.458 C 312.167 201.75 328.042 186.5 338.5 186.5 C 343.917 186.5 348.375 189.375 348.375 193.167 C 348.375 196.958 353.083 200.667 358.875 201.5 C 368.417 202.792 369.75 206.5 372.583 235.167 C 374.333 252.875 377.958 269.583 380.667 272.292 C 387.083 278.75 399.042 250.042 405.667 212.542 C 408.333 197 413.083 181.542 416.042 178.25 C 425.458 167.792 436.333 176.667 439.375 197.5 C 444.5 231.75 452.042 261.5 455.667 261.5 C 464.458 261.5 483.958 199.833 483.958 171.958 C 484 150.667 493.75 141.792 507.5 149.167 C 521.25 156.542 530.833 151.75 530.833 137.417 C 530.833 111.458 553.25 79.083 571.292 79.083 C 581.417 79.083 591.667 93.5 591.667 107.792 C 591.667 125 585.125 137.792 568.042 156.292 C 555.417 169.792 555.167 171 561.292 188.583 C 564.792 198.625 570.417 208.583 573.792 210.75 C 585.542 218.167 605.042 214.75 619.375 202.667 C 635.917 188.792 638.083 195.083 624.375 217.208 C 613.292 235.125 593.333 244.458 576.042 240.292 C 560.208 236.375 537.417 210.375 533.25 191.75 C 530.75 180.5 527.542 177.375 518.75 177.375 C 509.292 177.375 507.417 179.667 507.417 191.292 C 507.417 212.417 488.75 264.875 476.542 278.042 C 461.375 294.375 443.583 293.458 433.458 275.667 C 429.083 268 424.333 261.625 422.875 261.625 C 421.417 261.625 416.667 268.875 412.5 277.75 C 407.821 287.217 401.021 295.471 392.625 301.875 C 381.542 308.958 379.917 309 369.042 301.875 C 362.625 297.667 357.333 291.125 357.333 287.292 C 357.333 276.292 351.083 279.458 340.917 295.625 C 328.292 315.667 309.417 322.375 296.917 311.125 C 290.808 304.654 286.496 296.696 284.417 288.042 L 281.125 273.333 Z M 343.292 205.458 C 332 205.458 310.625 252.083 310.625 276.625 C 310.625 294.042 318.5 289.625 328.125 266.875 C 338.833 241.5 347.792 205.458 343.292 205.458 Z M 620.167 402.792 C 636.542 379.75 645.125 381.917 638.375 407.458 C 627.208 447.792 581.417 487.208 546.042 487.208 C 536.025 486.804 526.208 490.096 518.458 496.458 C 504.833 509.083 483.917 506.417 475.917 491 C 471.85 482.875 468.246 474.529 465.125 466 C 459.167 448.667 453.708 453.083 427.625 496.208 C 399.75 542.375 383.875 551.375 373.042 527.125 C 368.625 517.167 368.583 516.75 360.792 531.792 C 353 546.833 336.5 561.25 327.125 561.25 C 322.438 560.412 318.038 558.404 314.333 555.417 C 303.833 547.417 296.875 527 296.875 504.25 C 296.875 488.083 295.542 485.833 288.542 488.708 C 258.792 500.958 254.75 490.708 280.458 468.167 C 293.208 457 298.042 448.167 301.542 429.5 C 307.125 400 313.875 390.292 323.292 398.083 C 328.042 402.042 329.042 409.125 326.792 423.875 C 324.042 442.292 324.667 444.25 333.375 444.25 C 349.208 444.25 349.417 452.458 333.833 463.875 C 319.5 474.375 319.208 475.375 321.958 502.375 C 323.542 517.583 325.917 531.125 327.208 532.458 C 331.583 536.875 342.375 517.583 352.875 486.625 C 358.583 469.625 367.292 445.333 371.875 432.458 C 376.458 419.583 384.042 396.5 388.542 381.25 C 402.542 333.333 433.333 309.5 452.708 330.875 C 467.958 347.708 466.333 381.208 448.25 423.875 C 446.792 427.333 451.625 429.917 461.292 430.875 C 474.875 432.292 477.625 435.042 485.958 455.875 C 497.667 485.292 496.5 483.958 504.5 477.292 C 510.292 472.375 510.292 469.583 504.5 455.708 C 491.5 424.583 499.583 383.083 521.792 367.542 C 535.708 357.792 538 357.958 549.333 369.25 C 561.417 381.333 561.583 408.333 549.792 439.417 L 540.833 462.833 L 551.5 462.833 C 568.542 462.833 592 442.375 620.167 402.792 Z M 417.417 460.458 C 416.375 459.417 410.917 459.833 405.208 461.333 C 396.667 463.542 394.958 467.333 394.958 483.333 L 394.958 502.667 L 407.083 482.458 C 413.75 471.333 418.458 461.5 417.417 460.458 Z M 432 400.542 C 437.792 385.25 438.458 350.542 433.375 350.542 C 428.292 350.542 415.875 372.958 410 392.667 C 397 436.458 398.708 444 417.208 424.292 C 423.413 417.225 428.433 409.204 432.083 400.542 Z M 530.667 391.125 C 527.292 394.208 523.625 406.708 522.333 419.208 C 520.417 437.042 521.167 440.583 525.708 436.417 C 529.083 433.333 532.708 420.833 534.042 408.333 C 535.917 390.458 535.208 386.792 530.667 391.125 Z M 671.292 614.333 C 685.458 601.208 690.583 600.25 686.25 611.167 C 675.108 640.779 646.196 659.879 614.583 658.5 C 599.167 657.333 594 659.708 581.5 672.208 C 561.625 692.5 543 692.625 530.792 672.583 L 521.875 657.917 L 511.625 678.417 C 491 719.458 471.833 730.167 457.667 708.542 L 450.208 697.125 L 430.292 717.958 C 419.375 729.458 406.75 738.792 402.25 738.792 C 389.333 738.792 375.958 729.833 375.958 721.125 C 375.875 716.583 371.25 721.375 365.375 731.792 C 351.542 756.208 325.583 769.833 305.708 762.875 C 294.5 759 291.792 759.375 291.792 764.667 C 291.792 773.333 276.542 781.292 268.958 776.625 C 257.75 769.708 253.542 734.25 258.875 692.125 C 261.625 670.167 264.375 641.708 264.958 628.875 C 265.833 610.458 267.917 605.125 274.583 603.875 C 280.083 602.792 284.042 605.667 285.625 611.833 C 287.958 620.875 288.917 621 301.417 614.625 C 322.208 603.875 337.083 606.292 355.292 622.958 C 368.375 634.958 372.542 643.042 375.167 661.542 L 378.5 684.875 L 391.25 663.167 C 406.542 637.208 429.208 617.333 443.125 617.333 C 463.792 617.792 471.833 629.583 474.417 663.167 L 476.792 694.583 L 487.75 673.958 C 494.288 661.442 500.063 648.546 505.042 635.333 C 511.292 617.583 511.208 617.333 499.875 617.333 C 482.583 617.333 485.667 603.958 504.792 595.958 C 517 590.792 521.167 586.125 521.167 577.792 C 521.167 560.667 529.417 542.458 537.167 542.458 C 549.042 542.458 552.583 555.875 548.083 583.792 C 543.583 611.708 546.25 653.667 552.958 660.375 C 555.083 662.583 560.75 660.083 565.458 654.833 C 572.042 647.375 573.833 639.042 573.125 618.208 C 572.333 596.667 574.167 588.458 582.042 578.458 C 593.208 564.208 605.875 562.25 615.042 573.333 C 620.25 579.542 620.083 585.375 614.083 608.417 C 606.917 636.083 606.958 636.083 617.125 636.083 C 637.046 634.838 656.042 627.213 671.292 614.333 Z M 324.125 740.75 C 355.208 718.958 362.042 651.042 334.667 636.375 C 322 629.583 311.708 634.5 302.917 651.583 C 290.417 675.708 287.417 692.333 290.417 720.958 C 292.875 744.958 294.542 748.417 303.292 748.417 C 310.771 747.65 317.933 745.012 324.125 740.75 Z M 419.958 695.75 L 419.917 695.833 C 430 682.333 446.375 648.917 446.417 641.625 C 446.417 635 416.5 668.333 408.5 683.833 C 392.958 714.125 400.292 721.792 419.958 695.75 Z" style="fill-rule: nonzero; fill: rgb(255, 238, 2);">
    <title>text</title>
  </path>
</svg>